<svg width="903" height="898" viewBox="0 0 903 898" fill="none" xmlns="http://www.w3.org/2000/svg">
<path d="M902.746 433.344C902.859 436.703 902.934 440.071 902.972 443.448L902.472 443.453C902.491 445.14 902.5 446.829 902.5 448.52C902.5 450.211 902.491 451.9 902.472 453.586L902.972 453.592C902.934 456.969 902.859 460.337 902.746 463.695L902.247 463.679C902.134 467.041 901.984 470.394 901.798 473.738L902.297 473.766C902.108 477.141 901.882 480.506 901.619 483.861L901.12 483.822C900.858 487.173 900.557 490.514 900.221 493.844L900.718 493.894C900.378 497.258 900 500.611 899.586 503.952L899.09 503.891C898.675 507.23 898.224 510.558 897.736 513.874L898.231 513.947C897.739 517.286 897.211 520.614 896.646 523.929L896.153 523.845C895.587 527.165 894.985 530.472 894.346 533.766L894.837 533.862C894.195 537.172 893.517 540.468 892.802 543.752L892.313 543.646C891.597 546.938 890.844 550.216 890.055 553.481L890.541 553.598C889.75 556.873 888.922 560.133 888.059 563.379L887.576 563.25C886.71 566.507 885.808 569.75 884.87 572.977L885.351 573.117C884.411 576.35 883.437 579.567 882.427 582.77L881.95 582.619C880.936 585.834 879.887 589.033 878.803 592.216L879.276 592.377C878.19 595.564 877.07 598.734 875.914 601.889L875.445 601.717C874.286 604.88 873.092 608.028 871.864 611.158L872.33 611.34C871.1 614.475 869.835 617.593 868.537 620.693L868.076 620.5C866.775 623.606 865.44 626.694 864.071 629.764L864.528 629.967C863.156 633.044 861.751 636.102 860.312 639.142L859.86 638.928C858.421 641.97 856.947 644.993 855.441 647.997L855.888 648.221C854.378 651.232 852.835 654.225 851.26 657.197L850.818 656.963C849.242 659.935 847.634 662.888 845.994 665.821L846.43 666.065C844.786 669.005 843.109 671.925 841.4 674.824L840.969 674.57C839.261 677.467 837.522 680.344 835.751 683.2L836.175 683.463C834.4 686.326 832.593 689.167 830.755 691.987L830.336 691.714C828.499 694.531 826.632 697.327 824.734 700.1L825.147 700.382C823.244 703.162 821.311 705.919 819.348 708.654L818.942 708.362C816.981 711.094 814.99 713.803 812.969 716.488L813.369 716.789C811.344 719.48 809.289 722.148 807.205 724.792L806.812 724.483C804.731 727.124 802.62 729.741 800.481 732.334L800.866 732.652C798.723 735.249 796.552 737.822 794.352 740.37L793.973 740.043C791.776 742.589 789.55 745.109 787.296 747.605L787.667 747.94C785.411 750.438 783.126 752.911 780.815 755.358L780.451 755.015C778.142 757.46 775.806 759.879 773.443 762.271L773.798 762.623C771.433 765.017 769.041 767.386 766.622 769.728L766.275 769.369C763.859 771.708 761.417 774.02 758.95 776.305L759.289 776.672C756.82 778.959 754.324 781.219 751.803 783.451L751.472 783.076C748.955 785.305 746.413 787.506 743.845 789.679L744.169 790.061C741.599 792.235 739.005 794.382 736.387 796.5L736.073 796.111C733.46 798.225 730.822 800.31 728.161 802.366L728.466 802.762C725.803 804.82 723.115 806.849 720.404 808.849L720.108 808.447C717.404 810.441 714.676 812.407 711.926 814.342L712.214 814.751C709.461 816.689 706.685 818.597 703.886 820.474L703.608 820.059C700.818 821.93 698.007 823.772 695.173 825.582L695.443 826.004C692.606 827.816 689.748 829.598 686.868 831.349L686.609 830.922C683.739 832.667 680.847 834.381 677.936 836.063L678.186 836.496C675.272 838.18 672.337 839.833 669.382 841.453L669.142 841.015C666.197 842.63 663.231 844.213 660.246 845.764L660.477 846.208C657.491 847.759 654.486 849.278 651.462 850.765L651.242 850.316C648.227 851.798 645.193 853.247 642.14 854.663L642.351 855.117C639.3 856.533 636.231 857.915 633.143 859.264L632.943 858.806C629.864 860.152 626.767 861.464 623.652 862.743L623.842 863.206C620.733 864.482 617.606 865.726 614.462 866.935L614.283 866.468C611.145 867.675 607.991 868.848 604.82 869.986L604.989 870.457C601.827 871.592 598.649 872.693 595.455 873.76L595.297 873.285C592.107 874.351 588.901 875.382 585.679 876.378L585.827 876.855C582.62 877.846 579.398 878.803 576.161 879.725L576.024 879.244C572.791 880.165 569.543 881.051 566.281 881.901L566.407 882.385C563.158 883.232 559.895 884.043 556.618 884.82L556.502 884.333C553.234 885.107 549.951 885.846 546.655 886.55L546.759 887.039C543.474 887.74 540.175 888.405 536.864 889.034L536.77 888.543C533.473 889.17 530.163 889.761 526.841 890.316L526.923 890.809C523.607 891.363 520.278 891.881 516.938 892.363L516.866 891.868C513.549 892.347 510.219 892.789 506.878 893.196L506.938 893.692C503.596 894.099 500.243 894.469 496.879 894.802L496.829 894.305C493.499 894.635 490.157 894.929 486.805 895.187L486.843 895.686C483.488 895.944 480.122 896.165 476.746 896.35L476.719 895.851C473.375 896.034 470.022 896.181 466.66 896.291L466.676 896.791C463.317 896.901 459.949 896.975 456.572 897.012L456.567 896.512C454.88 896.53 453.191 896.54 451.5 896.54C449.809 896.54 448.12 896.53 446.433 896.512L446.428 897.012C443.051 896.975 439.683 896.901 436.324 896.791L436.34 896.291C432.978 896.181 429.625 896.034 426.281 895.851L426.254 896.35C422.878 896.165 419.512 895.944 416.157 895.686L416.195 895.187C412.843 894.929 409.502 894.635 406.171 894.305L406.121 894.802C402.757 894.469 399.404 894.099 396.062 893.692L396.122 893.196C392.781 892.789 389.452 892.347 386.134 891.868L386.062 892.363C382.722 891.881 379.393 891.363 376.077 890.809L376.159 890.316C372.837 889.761 369.527 889.17 366.23 888.543L366.137 889.034C362.825 888.405 359.526 887.74 356.241 887.039L356.345 886.55C353.049 885.846 349.767 885.107 346.498 884.333L346.383 884.82C343.105 884.043 339.842 883.232 336.593 882.385L336.719 881.901C333.457 881.051 330.209 880.165 326.976 879.244L326.839 879.725C323.602 878.803 320.38 877.846 317.174 876.855L317.321 876.378C314.1 875.382 310.893 874.351 307.703 873.285L307.545 873.76C304.351 872.693 301.173 871.592 298.012 870.457L298.181 869.986C295.01 868.848 291.855 867.675 288.718 866.468L288.538 866.935C285.394 865.726 282.267 864.482 279.158 863.206L279.348 862.743C276.233 861.464 273.136 860.152 270.057 858.806L269.857 859.264C266.769 857.915 263.7 856.533 260.65 855.117L260.86 854.664C257.807 853.247 254.774 851.798 251.759 850.316L251.538 850.765C248.514 849.278 245.509 847.759 242.523 846.208L242.754 845.764C239.769 844.213 236.804 842.63 233.858 841.015L233.618 841.453C230.663 839.833 227.728 838.18 224.814 836.497L225.065 836.064C222.153 834.381 219.262 832.667 216.392 830.922L216.132 831.349C213.252 829.598 210.394 827.816 207.558 826.004L207.827 825.582C204.993 823.772 202.182 821.93 199.392 820.059L199.114 820.474C196.316 818.597 193.54 816.689 190.786 814.751L191.074 814.342C188.324 812.407 185.597 810.442 182.893 808.447L182.596 808.849C179.885 806.849 177.197 804.82 174.534 802.762L174.84 802.367C172.178 800.31 169.541 798.225 166.927 796.111L166.613 796.5C163.995 794.382 161.401 792.235 158.832 790.061L159.155 789.679C156.588 787.506 154.045 785.305 151.528 783.076L151.197 783.451C148.676 781.219 146.18 778.959 143.711 776.672L144.051 776.305C141.583 774.02 139.141 771.708 136.726 769.369L136.378 769.728C133.959 767.386 131.567 765.018 129.202 762.623L129.557 762.271C127.194 759.879 124.858 757.46 122.549 755.015L122.185 755.359C119.874 752.911 117.59 750.438 115.333 747.94L115.704 747.605C113.451 745.11 111.225 742.589 109.027 740.044L108.648 740.37C106.448 737.822 104.277 735.25 102.134 732.652L102.52 732.334C100.38 729.741 98.2693 727.124 96.1877 724.483L95.795 724.792C93.7111 722.148 91.6564 719.48 89.6314 716.789L90.0309 716.489C88.0102 713.803 86.0191 711.094 84.0581 708.363L83.652 708.654C81.6888 705.92 79.7557 703.162 77.8533 700.382L78.2659 700.1C76.368 697.327 74.5007 694.531 72.6643 691.714L72.2454 691.987C70.4073 689.168 68.6003 686.326 66.8247 683.463L67.2496 683.2C65.4786 680.344 63.7389 677.468 62.0311 674.57L61.6003 674.824C59.8915 671.925 58.2145 669.005 56.5699 666.065L57.0062 665.821C55.3659 662.888 53.7576 659.936 52.1821 656.963L51.7403 657.197C50.1647 654.225 48.6217 651.233 47.1118 648.221L47.5588 647.997C46.0526 644.993 44.5794 641.97 43.1396 638.928L42.6877 639.142C41.249 636.102 39.8436 633.044 38.472 629.968L38.9287 629.764C37.5601 626.694 36.2251 623.606 34.9244 620.5L34.4632 620.694C33.1647 617.593 31.9002 614.476 30.6703 611.341L31.1357 611.158C29.9076 608.028 28.7139 604.881 27.5551 601.717L27.0856 601.889C25.9304 598.735 24.8098 595.564 23.7242 592.378L24.1975 592.216C23.1132 589.033 22.0639 585.834 21.0501 582.62L20.5732 582.77C19.5633 579.568 18.5886 576.35 17.6494 573.117L18.1296 572.978C17.192 569.75 16.2899 566.508 15.4239 563.251L14.9407 563.379C14.0776 560.133 13.2502 556.873 12.4589 553.599L12.945 553.481C12.156 550.216 11.4031 546.938 10.6866 543.646L10.198 543.752C9.48338 540.469 8.80493 537.172 8.1631 533.862L8.65395 533.767C8.01514 530.472 7.41265 527.165 6.84691 523.846L6.35402 523.93C5.78901 520.614 5.26062 517.287 4.76928 513.947L5.26395 513.874C4.77607 510.558 4.32475 507.23 3.91042 503.891L3.41423 503.953C2.99963 500.611 2.62202 497.258 2.28183 493.894L2.77929 493.844C2.44252 490.514 2.14246 487.173 1.87951 483.822L1.38105 483.861C1.11781 480.506 0.891726 477.141 0.703209 473.766L1.20243 473.738C1.01569 470.395 0.865846 467.041 0.753306 463.679L0.253587 463.696C0.141178 460.337 0.0659423 456.969 0.0282751 453.592L0.528244 453.586C0.509431 451.9 0.5 450.211 0.5 448.52C0.5 446.829 0.509431 445.14 0.528242 443.453L0.0282732 443.448C0.065939 440.071 0.141173 436.703 0.253579 433.344L0.7533 433.361C0.865838 429.998 1.01568 426.645 1.20242 423.302L0.703199 423.274C0.891714 419.899 1.1178 416.533 1.38103 413.179L1.8795 413.218C2.14245 409.867 2.4425 406.526 2.77927 403.196L2.28181 403.145C2.622 399.782 2.9996 396.429 3.41421 393.087L3.9104 393.149C4.32473 389.81 4.77604 386.482 5.26392 383.165L4.76925 383.093C5.26059 379.753 5.78897 376.425 6.35398 373.11L6.84688 373.194C7.41261 369.875 8.0151 366.567 8.65391 363.273L8.16306 363.178C8.80489 359.868 9.48335 356.571 10.198 353.288L10.6866 353.394C11.4031 350.102 12.156 346.823 12.9449 343.559L12.4589 343.441C13.2501 340.167 14.0775 336.907 14.9406 333.661L15.4238 333.789C16.2899 330.532 17.1919 327.29 18.1295 324.062L17.6494 323.923C18.5885 320.69 19.5633 317.472 20.5732 314.27L21.05 314.42C22.0638 311.206 23.1131 308.006 24.1975 304.823L23.7242 304.662C24.8097 301.476 25.9303 298.305 27.0856 295.151L27.5551 295.323C28.7139 292.159 29.9076 289.012 31.1357 285.882L30.6702 285.699C31.9002 282.564 33.1647 279.446 34.4631 276.346L34.9243 276.539C36.2251 273.434 37.56 270.346 38.9287 267.276L38.472 267.072C39.8435 263.996 41.2489 260.937 42.6876 257.898L43.1396 258.112C44.5793 255.07 46.0525 252.047 47.5587 249.043L47.1117 248.819C48.6216 245.807 50.1646 242.815 51.7402 239.842L52.182 240.077C53.7576 237.104 55.3658 234.152 57.0061 231.219L56.5698 230.975C58.2144 228.035 59.8914 225.115 61.6002 222.216L62.031 222.47C63.7388 219.572 65.4785 216.696 67.2495 213.84L66.8246 213.577C68.6002 210.714 70.4072 207.872 72.2453 205.052L72.6642 205.325C74.5006 202.508 76.3679 199.713 78.2658 196.94L77.8532 196.657C79.7556 193.878 81.6887 191.12 83.6518 188.386L84.058 188.677C86.019 185.946 88.0101 183.237 90.0308 180.551L89.6313 180.251C91.6563 177.559 93.711 174.892 95.7948 172.248L96.1875 172.557C98.2692 169.916 100.38 167.299 102.519 164.706L102.134 164.387C104.277 161.79 106.448 159.217 108.648 156.669L109.027 156.996C111.224 154.451 113.45 151.93 115.704 149.435L115.333 149.1C117.589 146.601 119.874 144.128 122.185 141.681L122.549 142.024C124.858 139.58 127.194 137.161 129.557 134.768L129.201 134.417C131.567 132.022 133.959 129.654 136.378 127.312L136.725 127.671C139.141 125.332 141.583 123.02 144.05 120.735L143.711 120.368C146.18 118.081 148.676 115.821 151.197 113.589L151.528 113.963C154.045 111.735 156.587 109.534 159.155 107.361L158.832 106.979C161.401 104.804 163.995 102.658 166.613 100.54L166.927 100.929C169.541 98.8149 172.178 96.7295 174.839 94.6732L174.534 94.2775C177.197 92.2194 179.885 90.1902 182.596 88.1906L182.892 88.5929C185.597 86.5982 188.324 84.6328 191.074 82.6973L190.786 82.2884C193.539 80.3507 196.315 78.443 199.114 76.5655L199.392 76.9807C202.182 75.1092 204.993 73.2679 207.827 71.4572L207.557 71.0359C210.394 69.2233 213.252 67.4413 216.132 65.6905L216.391 66.1177C219.261 64.3727 222.153 62.6587 225.064 60.9761L224.814 60.5432C227.728 58.8594 230.663 57.2071 233.618 55.5867L233.858 56.0251C236.803 54.41 239.769 52.8267 242.754 51.2757L242.523 50.832C245.509 49.2807 248.514 47.7615 251.538 46.2751L251.758 46.7238C254.773 45.2419 257.807 43.7926 260.86 42.3762L260.649 41.9226C263.7 40.5071 266.769 39.1245 269.857 37.7752L270.057 38.2333C273.136 36.8877 276.233 35.5752 279.348 34.2964L279.158 33.8339C282.267 32.5572 285.394 31.3141 288.538 30.1049L288.717 30.5715C291.855 29.3648 295.009 28.1919 298.18 27.0534L298.011 26.5828C301.173 25.4477 304.351 24.3466 307.545 23.2801L307.703 23.7543C310.893 22.689 314.099 21.6581 317.321 20.6621L317.173 20.1844C320.38 19.1931 323.602 18.2364 326.839 17.3146L326.976 17.7955C330.209 16.8748 333.457 15.9891 336.719 15.1387L336.593 14.6549C339.842 13.808 343.105 12.9963 346.382 12.22L346.498 12.7065C349.766 11.9322 353.049 11.1932 356.345 10.49L356.241 10.001C359.526 9.30009 362.825 8.63465 366.136 8.00516L366.23 8.49636C369.527 7.86961 372.837 7.27852 376.159 6.72352L376.077 6.23035C379.393 5.67631 382.722 5.15819 386.062 4.6764L386.134 5.17128C389.451 4.69276 392.781 4.25012 396.122 3.84378L396.062 3.34743C399.404 2.94094 402.757 2.57073 406.121 2.2372L406.171 2.73476C409.501 2.40453 412.843 2.11031 416.195 1.85248L416.157 1.35395C419.512 1.09584 422.878 0.874176 426.254 0.689346L426.281 1.1886C429.625 1.00554 432.978 0.858662 436.34 0.748342L436.324 0.24861C439.683 0.138406 443.051 0.0646472 446.428 0.0277197L446.433 0.52769C448.12 0.509246 449.809 0.5 451.5 0.5C453.191 0.5 454.88 0.509245 456.567 0.527688L456.572 0.0277179C459.949 0.0646441 463.317 0.138402 466.676 0.248605L466.66 0.748336C470.022 0.858655 473.375 1.00554 476.719 1.18859L476.746 0.689337C480.122 0.874165 483.488 1.09583 486.843 1.35394L486.805 1.85247C490.157 2.11029 493.498 2.40452 496.829 2.73475L496.879 2.23719C500.243 2.57072 503.596 2.94093 506.938 3.34742L506.878 3.84376C510.219 4.2501 513.548 4.69274 516.866 5.17125L516.938 4.67638C520.278 5.15816 523.607 5.67629 526.923 6.23033L526.841 6.72349C530.163 7.2785 533.473 7.86958 536.77 8.49633L536.863 8.00513C540.175 8.63462 543.474 9.30006 546.759 10.001L546.655 10.49C549.951 11.1932 553.233 11.9322 556.502 12.7065L556.617 12.22C559.895 12.9962 563.158 13.808 566.407 14.6548L566.281 15.1387C569.543 15.989 572.791 16.8748 576.024 17.7955L576.161 17.3146C579.398 18.2363 582.62 19.1931 585.826 20.1844L585.679 20.6621C588.9 21.658 592.107 22.6889 595.297 23.7543L595.455 23.28C598.649 24.3466 601.827 25.4476 604.988 26.5827L604.819 27.0533C607.99 28.1919 611.145 29.3648 614.282 30.5715L614.462 30.1048C617.606 31.314 620.733 32.5572 623.842 33.8339L623.652 34.2964C626.767 35.5752 629.864 36.8876 632.943 38.2333L633.143 37.7751C636.231 39.1244 639.3 40.507 642.35 41.9226L642.14 42.3761C645.193 43.7925 648.227 45.2419 651.241 46.7237L651.462 46.275C654.486 47.7614 657.491 49.2806 660.477 50.8319L660.246 51.2756C663.231 52.8266 666.196 54.41 669.142 56.025L669.382 55.5866C672.337 57.207 675.272 58.8593 678.186 60.5431L677.935 60.976C680.847 62.6586 683.739 64.3726 686.608 66.1176L686.868 65.6904C689.748 67.4412 692.606 69.2232 695.443 71.0359L695.173 71.4572C698.007 73.2678 700.818 75.1091 703.608 76.9806L703.886 76.5654C706.684 78.4429 709.46 80.3507 712.214 82.2883L711.926 82.6972C714.676 84.6327 717.403 86.5981 720.107 88.5928L720.404 88.1904C723.115 90.1901 725.803 92.2193 728.466 94.2774L728.16 94.6731C730.822 96.7294 733.459 98.8148 736.073 100.929L736.387 100.54C739.005 102.658 741.599 104.804 744.168 106.979L743.845 107.361C746.412 109.534 748.955 111.735 751.472 113.963L751.803 113.589C754.324 115.821 756.82 118.081 759.289 120.368L758.949 120.734C761.417 123.02 763.859 125.332 766.274 127.671L766.622 127.312C769.041 129.653 771.433 132.022 773.798 134.417L773.443 134.768C775.806 137.161 778.142 139.58 780.451 142.024L780.815 141.681C783.126 144.128 785.41 146.601 787.667 149.1L787.296 149.435C789.549 151.93 791.775 154.451 793.973 156.996L794.352 156.669C796.552 159.217 798.723 161.79 800.866 164.387L800.48 164.705C802.62 167.298 804.731 169.916 806.812 172.557L807.205 172.247C809.289 174.891 811.344 177.559 813.369 180.25L812.969 180.551C814.99 183.237 816.981 185.945 818.942 188.677L819.348 188.385C821.311 191.12 823.244 193.878 825.147 196.657L824.734 196.94C826.632 199.713 828.499 202.508 830.336 205.325L830.755 205.052C832.593 207.872 834.4 210.714 836.175 213.576L835.75 213.84C837.521 216.695 839.261 219.572 840.969 222.47L841.4 222.216C843.109 225.115 844.785 228.035 846.43 230.975L845.994 231.219C847.634 234.151 849.242 237.104 850.818 240.076L851.26 239.842C852.835 242.815 854.378 245.807 855.888 248.818L855.441 249.043C856.947 252.047 858.421 255.07 859.86 258.112L860.312 257.898C861.751 260.937 863.156 263.996 864.528 267.072L864.071 267.276C865.44 270.346 866.775 273.434 868.076 276.539L868.537 276.346C869.835 279.446 871.1 282.564 872.33 285.699L871.864 285.882C873.092 289.012 874.286 292.159 875.445 295.323L875.914 295.151C877.07 298.305 878.19 301.475 879.276 304.662L878.802 304.823C879.887 308.006 880.936 311.205 881.95 314.42L882.427 314.27C883.437 317.472 884.411 320.69 885.351 323.923L884.87 324.062C885.808 327.29 886.71 330.532 887.576 333.789L888.059 333.661C888.922 336.906 889.75 340.167 890.541 343.441L890.055 343.558C890.844 346.823 891.597 350.102 892.313 353.394L892.802 353.288C893.517 356.571 894.195 359.868 894.837 363.178L894.346 363.273C894.985 366.567 895.587 369.874 896.153 373.194L896.646 373.11C897.211 376.425 897.739 379.753 898.231 383.092L897.736 383.165C898.224 386.481 898.675 389.809 899.09 393.149L899.586 393.087C900 396.429 900.378 399.781 900.718 403.145L900.221 403.196C900.557 406.526 900.858 409.866 901.12 413.217L901.619 413.178C901.882 416.533 902.108 419.898 902.297 423.274L901.798 423.301C901.984 426.645 902.134 429.998 902.247 433.361L902.746 433.344Z" stroke="white" stroke-dasharray="10 10"/>
</svg>
