<svg width="1084" height="354" viewBox="0 0 1084 354" fill="none" xmlns="http://www.w3.org/2000/svg">
<path d="M5.01852 113H15.0556M25.0926 113H35.1296M45.1667 113H55.2037M65.2407 113H75.2778M85.3148 113H95.3518M105.389 113H115.426M125.463 113H135.5M145.537 113H155.574M165.611 113H175.648M185.685 113H195.722M205.759 113H215.796M225.833 113H235.87M245.907 113H255.944M265.981 113H276.018M286.056 113H296.093M306.13 113H316.167M326.204 113H336.241M346.278 113H356.315M366.352 113H376.389M386.426 113H396.463M406.5 113H416.537M426.574 113H436.611M446.648 113H456.685M466.722 113H476.759M486.796 113H496.834M506.871 113H516.908M526.945 113H536.982M547.019 113H557.056M567.093 113H577.13M587.167 113H597.204M607.241 113H617.278M627.315 113H637.352M647.389 113H657.426M667.463 113H677.5M687.537 113H697.574M707.612 113H717.649M727.686 113H737.723M747.76 113H757.797M767.834 113H777.871M787.908 113H797.945M807.982 113H818.019M828.056 113H838.093M848.13 113H858.167M868.204 113H878.241M888.278 113H898.315M908.352 113H918.39M928.427 113H938.464M948.501 113H958.538M968.575 113H978.612M988.649 113H998.686M1008.72 113H1018.76M1028.8 113H1038.83M1048.87 113H1058.91M1068.94 113H1078.98M1078.98 258.5H1068.94M1058.91 258.5H1048.87M1038.83 258.5H1028.8M1018.76 258.5H1008.72M998.686 258.5H988.649M978.612 258.5H968.575M958.538 258.5H948.501M938.464 258.5H928.427M918.39 258.5H908.352M898.315 258.5H888.278M878.241 258.5H868.204M858.167 258.5H848.13M838.093 258.5H828.056M818.019 258.5H807.982M797.945 258.5H787.908M777.871 258.5H767.834M757.797 258.5H747.76M737.723 258.5H727.686M717.649 258.5H707.612M697.574 258.5H687.537M677.5 258.5H667.463M657.426 258.5H647.389M637.352 258.5H627.315M617.278 258.5H607.241M597.204 258.5H587.167M577.13 258.5H567.093M557.056 258.5H547.019M536.982 258.5H526.945M516.908 258.5H506.871M496.834 258.5H486.796M476.759 258.5H466.722M456.685 258.5H446.648M436.611 258.5H426.574M416.537 258.5H406.5M396.463 258.5H386.426M376.389 258.5H366.352M356.315 258.5H346.278M336.241 258.5H326.204M316.167 258.5H306.13M296.093 258.5H286.056M276.018 258.5H265.981M255.944 258.5H245.907M235.87 258.5H225.833M215.796 258.5H205.759M195.722 258.5H185.685M175.648 258.5H165.611M155.574 258.5H145.537M135.5 258.5H125.463M115.426 258.5H105.389M95.3518 258.5H85.3148M75.2778 258.5H65.2407M55.2037 258.5H45.1667M35.1296 258.5H25.0926M15.0556 258.5H5.01852M0 14.125V4.70834H0.5V0.5H5.01852V0H15.0556V0.5H25.0926V0H35.1296V0.5H45.1667V0H55.2037V0.5H65.2407V0H75.2778V0.5H85.3148V0H95.3518V0.5H105.389V0H115.426V0.5H125.463V0H135.5V0.5H145.537V0H155.574V0.5H165.611V0H175.648V0.5H185.685V0H195.722V0.5H205.759V0H215.796V0.5H225.833V0H235.87V0.5H245.907V0H255.944V0.5H265.981V0H276.018V0.5H286.056V0H296.093V0.5H306.13V0H316.167V0.5H326.204V0H336.241V0.5H346.278V0H356.315V0.5H366.352V0H376.389V0.5H386.426V0H396.463V0.5H406.5V0H416.537V0.5H426.574V0H436.611V0.5H446.648V0H456.685V0.5H466.722V0H476.759V0.5H486.796V0H496.834V0.5H506.871V0H516.908V0.5H526.945V0H536.982V0.5H547.019V0H557.056V0.5H567.093V0H577.13V0.5H587.167V0H597.204V0.5H607.241V0H617.278V0.5H627.315V0H637.352V0.5H647.389V0H657.426V0.5H667.463V0H677.5V0.5H687.537V0H697.574V0.5H707.612V0H717.649V0.5H727.686V0H737.723V0.5H747.76V0H757.797V0.5H767.834V0H777.871V0.5H787.908V0H797.945V0.5H807.982V0H818.019V0.5H828.056V0H838.093V0.5H848.13V0H858.167V0.5H868.204V0H878.241V0.5H888.278V0H898.315V0.5H908.352V0H918.39V0.5H928.427V0H938.464V0.5H948.501V0H958.538V0.5H968.575V0H978.612V0.5H988.649V0H998.686V0.5H1008.72V0H1018.76V0.5H1028.8V0H1038.83V0.5H1048.87V0H1058.91V0.5H1068.94V0H1078.98V0.5H1083.5V4.70833H1084V14.125H1083.5V23.5417H1084V32.9583H1083.5V42.375H1084V51.7917H1083.5V61.2083H1084V70.625H1083.5V80.0417H1084V89.4583H1083.5V98.875H1084V108.292H1083.5V112.5H1078.98V113.5H1083.5V118.196H1084V128.589H1083.5V138.982H1084V149.375H1083.5V159.768H1084V170.161H1083.5V180.554H1084V190.946H1083.5V201.339H1084V211.732H1083.5V222.125H1084V232.518H1083.5V242.911H1084V253.304H1083.5V258H1078.98V259H1083.5V263.275H1084V272.825H1083.5V282.375H1084V291.925H1083.5V301.475H1084V311.025H1083.5V320.575H1084V330.125H1083.5V339.675H1084V349.225H1083.5V353.5H1078.98V354H1068.94V353.5H1058.91V354H1048.87V353.5H1038.83V354H1028.8V353.5H1018.76V354H1008.72V353.5H998.686V354H988.649V353.5H978.612V354H968.575V353.5H958.538V354H948.501V353.5H938.464V354H928.427V353.5H918.39V354H908.352V353.5H898.315V354H888.278V353.5H878.241V354H868.204V353.5H858.167V354H848.13V353.5H838.093V354H828.056V353.5H818.019V354H807.982V353.5H797.945V354H787.908V353.5H777.871V354H767.834V353.5H757.797V354H747.76V353.5H737.723V354H727.686V353.5H717.649V354H707.612V353.5H697.574V354H687.537V353.5H677.5V354H667.463V353.5H657.426V354H647.389V353.5H637.352V354H627.315V353.5H617.278V354H607.241V353.5H597.204V354H587.167V353.5H577.13V354H567.093V353.5H557.056V354H547.019V353.5H536.982V354H526.945V353.5H516.908V354H506.871V353.5H496.834V354H486.796V353.5H476.759V354H466.722V353.5H456.685V354H446.648V353.5H436.611V354H426.574V353.5H416.537V354H406.5V353.5H396.463V354H386.426V353.5H376.389V354H366.352V353.5H356.315V354H346.278V353.5H336.241V354H326.204V353.5H316.167V354H306.13V353.5H296.093V354H286.056V353.5H276.018V354H265.981V353.5H255.944V354H245.907V353.5H235.87V354H225.833V353.5H215.796V354H205.759V353.5H195.722V354H185.685V353.5H175.648V354H165.611V353.5H155.574V354H145.537V353.5H135.5V354H125.463V353.5H115.426V354H105.389V353.5H95.3518V354H85.3148V353.5H75.2778V354H65.2407V353.5H55.2037V354H45.1667V353.5H35.1296V354H25.0926V353.5H15.0556V354H5.01852V353.5H0.5V349.225H0V339.675H0.5V330.125H0V320.575H0.5V311.025H0V301.475H0.5V291.925H0V282.375H0.5V272.825H0V263.275H0.5V259H5.01852V258H0.5V253.304H0V242.911H0.5V232.518H0V222.125H0.5V211.732H0V201.339H0.5V190.946H0V180.554H0.5V170.161H0V159.768H0.5V149.375H0V138.982H0.5V128.589H0V118.196H0.5V113.5H5.01852V112.5H0.5V108.292H0V98.875H0.5V89.4583H0V80.0417H0.5V70.625H0V61.2083H0.5V51.7917H0V42.375H0.5V32.9583H0V23.5417H0.5V14.125H0ZM15.0556 113.5H25.0926V112.5H15.0556V113.5ZM35.1296 113.5H45.1667V112.5H35.1296V113.5ZM55.2037 113.5H65.2407V112.5H55.2037V113.5ZM75.2778 113.5H85.3148V112.5H75.2778V113.5ZM95.3518 113.5H105.389V112.5H95.3518V113.5ZM115.426 113.5H125.463V112.5H115.426V113.5ZM135.5 113.5H145.537V112.5H135.5V113.5ZM155.574 113.5H165.611V112.5H155.574V113.5ZM175.648 113.5H185.685V112.5H175.648V113.5ZM195.722 113.5H205.759V112.5H195.722V113.5ZM215.796 113.5H225.833V112.5H215.796V113.5ZM235.87 113.5H245.907V112.5H235.87V113.5ZM255.944 113.5H265.981V112.5H255.944V113.5ZM276.018 113.5H286.056V112.5H276.018V113.5ZM296.093 113.5H306.13V112.5H296.093V113.5ZM316.167 113.5H326.204V112.5H316.167V113.5ZM336.241 113.5H346.278V112.5H336.241V113.5ZM356.315 113.5H366.352V112.5H356.315V113.5ZM376.389 113.5H386.426V112.5H376.389V113.5ZM396.463 113.5H406.5V112.5H396.463V113.5ZM416.537 113.5H426.574V112.5H416.537V113.5ZM436.611 113.5H446.648V112.5H436.611V113.5ZM456.685 113.5H466.722V112.5H456.685V113.5ZM476.759 113.5H486.796V112.5H476.759V113.5ZM496.834 113.5H506.871V112.5H496.834V113.5ZM516.908 113.5H526.945V112.5H516.908V113.5ZM536.982 113.5H547.019V112.5H536.982V113.5ZM557.056 113.5H567.093V112.5H557.056V113.5ZM577.13 113.5H587.167V112.5H577.13V113.5ZM597.204 113.5H607.241V112.5H597.204V113.5ZM617.278 113.5H627.315V112.5H617.278V113.5ZM637.352 113.5H647.389V112.5H637.352V113.5ZM657.426 113.5H667.463V112.5H657.426V113.5ZM677.5 113.5H687.537V112.5H677.5V113.5ZM697.574 113.5H707.612V112.5H697.574V113.5ZM717.649 113.5H727.686V112.5H717.649V113.5ZM737.723 113.5H747.76V112.5H737.723V113.5ZM757.797 113.5H767.834V112.5H757.797V113.5ZM777.871 113.5H787.908V112.5H777.871V113.5ZM797.945 113.5H807.982V112.5H797.945V113.5ZM818.019 113.5H828.056V112.5H818.019V113.5ZM838.093 113.5H848.13V112.5H838.093V113.5ZM858.167 113.5H868.204V112.5H858.167V113.5ZM878.241 113.5H888.278V112.5H878.241V113.5ZM898.315 113.5H908.352V112.5H898.315V113.5ZM918.39 113.5H928.427V112.5H918.39V113.5ZM938.464 113.5H948.501V112.5H938.464V113.5ZM958.538 113.5H968.575V112.5H958.538V113.5ZM978.612 113.5H988.649V112.5H978.612V113.5ZM998.686 113.5H1008.72V112.5H998.686V113.5ZM1018.76 113.5H1028.8V112.5H1018.76V113.5ZM1038.83 113.5H1048.87V112.5H1038.83V113.5ZM1058.91 113.5H1068.94V112.5H1058.91V113.5ZM15.0556 259H25.0926V258H15.0556V259ZM35.1296 259H45.1667V258H35.1296V259ZM55.2037 259H65.2407V258H55.2037V259ZM75.2778 259H85.3148V258H75.2778V259ZM95.3518 259H105.389V258H95.3518V259ZM115.426 259H125.463V258H115.426V259ZM135.5 259H145.537V258H135.5V259ZM155.574 259H165.611V258H155.574V259ZM175.648 259H185.685V258H175.648V259ZM195.722 259H205.759V258H195.722V259ZM215.796 259H225.833V258H215.796V259ZM235.87 259H245.907V258H235.87V259ZM255.944 259H265.981V258H255.944V259ZM276.018 259H286.056V258H276.018V259ZM296.093 259H306.13V258H296.093V259ZM316.167 259H326.204V258H316.167V259ZM336.241 259H346.278V258H336.241V259ZM356.315 259H366.352V258H356.315V259ZM376.389 259H386.426V258H376.389V259ZM396.463 259H406.5V258H396.463V259ZM416.537 259H426.574V258H416.537V259ZM436.611 259H446.648V258H436.611V259ZM456.685 259H466.722V258H456.685V259ZM476.759 259H486.796V258H476.759V259ZM496.834 259H506.871V258H496.834V259ZM516.908 259H526.945V258H516.908V259ZM536.982 259H547.019V258H536.982V259ZM557.056 259H567.093V258H557.056V259ZM577.13 259H587.167V258H577.13V259ZM597.204 259H607.241V258H597.204V259ZM617.278 259H627.315V258H617.278V259ZM637.352 259H647.389V258H637.352V259ZM657.426 259H667.463V258H657.426V259ZM677.5 259H687.537V258H677.5V259ZM697.574 259H707.612V258H697.574V259ZM717.649 259H727.686V258H717.649V259ZM737.723 259H747.76V258H737.723V259ZM757.797 259H767.834V258H757.797V259ZM777.871 259H787.908V258H777.871V259ZM797.945 259H807.982V258H797.945V259ZM818.019 259H828.056V258H818.019V259ZM838.093 259H848.13V258H838.093V259ZM858.167 259H868.204V258H858.167V259ZM878.241 259H888.278V258H878.241V259ZM898.315 259H908.352V258H898.315V259ZM918.39 259H928.427V258H918.39V259ZM938.464 259H948.501V258H938.464V259ZM958.538 259H968.575V258H958.538V259ZM978.612 259H988.649V258H978.612V259ZM998.686 259H1008.72V258H998.686V259ZM1018.76 259H1028.8V258H1018.76V259ZM1038.83 259H1048.87V258H1038.83V259ZM1058.91 259H1068.94V258H1058.91V259Z" stroke="white" stroke-dasharray="10 10"/>
</svg>
