<svg width="844" height="129" viewBox="0 0 844 129" fill="none" xmlns="http://www.w3.org/2000/svg">
<path d="M811.741 125.436C805.669 125.436 800.261 123.911 795.517 120.863C790.801 117.774 787.073 113.538 784.336 108.153C781.625 102.728 780.229 96.4723 780.147 89.3849H797.876C797.984 92.3545 798.648 94.9677 799.868 97.2246C801.115 99.4419 802.768 101.164 804.829 102.392C806.889 103.619 809.206 104.233 811.782 104.233C814.465 104.233 816.837 103.54 818.897 102.154C820.957 100.768 822.57 98.848 823.736 96.3931C824.901 93.9383 825.484 91.1072 825.484 87.9001C825.484 84.6533 824.861 81.7827 823.614 79.2882C822.394 76.7541 820.632 74.7744 818.328 73.349C816.051 71.9236 813.34 71.2109 810.196 71.2109H802.43V52.3242H810.196C812.852 52.3242 815.197 51.6511 817.23 50.3048C819.29 48.9586 820.89 47.0977 822.028 44.722C823.167 42.3067 823.736 39.4955 823.736 36.2883C823.736 33.2395 823.234 30.5669 822.231 28.2704C821.256 25.9343 819.873 24.1129 818.084 22.8063C816.322 21.4997 814.262 20.8464 811.904 20.8464C809.518 20.8464 807.336 21.4799 805.357 22.7469C803.378 23.9743 801.793 25.7363 800.6 28.0328C799.407 30.3293 798.77 33.0217 798.689 36.1101H781.815C781.896 29.1019 783.265 22.9251 785.921 17.5798C788.578 12.2345 792.156 8.05725 796.656 5.04805C801.183 1.99925 806.292 0.474854 811.985 0.474854C817.732 0.474854 822.76 1.99925 827.07 5.04805C831.38 8.09684 834.728 12.2147 837.113 17.4016C839.526 22.5489 840.719 28.3298 840.691 34.7441C840.719 41.5544 839.268 47.2363 836.341 51.7896C833.44 56.343 829.659 59.2335 824.996 60.4609V61.4112C831.123 62.5594 835.785 65.6676 838.984 70.7357C842.209 75.7643 843.809 82.0598 843.782 89.6224C843.809 96.5515 842.44 102.708 839.675 108.093C836.937 113.478 833.156 117.715 828.331 120.803C823.505 123.892 817.976 125.436 811.741 125.436Z" fill="white"/>
<path d="M730.76 123.773H711.893L740.64 2.1377H763.329L792.036 123.773H773.169L752.31 29.9332H751.659L730.76 123.773ZM729.581 75.9621H774.145V96.0366H729.581V75.9621Z" fill="white"/>
<path d="M706.328 123.773L679.573 71.9234H673.555V123.773H655.949V2.1377H673.555V50.7204H677.093L704.742 2.1377H726.658L694.17 58.5602L728.163 123.773H706.328Z" fill="white"/>
<path d="M605.26 123.773H586.394L615.141 2.1377H637.83L666.536 123.773H647.669L626.81 29.9332H626.16L605.26 123.773ZM604.081 75.9621H648.645V96.0366H604.081V75.9621Z" fill="white"/>
<path d="M566.333 125.436C560.261 125.436 554.853 123.911 550.109 120.863C545.392 117.774 541.665 113.538 538.927 108.153C536.217 102.728 534.821 96.4723 534.739 89.3849H552.467C552.576 92.3545 553.24 94.9677 554.46 97.2246C555.707 99.4419 557.36 101.164 559.42 102.392C561.481 103.619 563.798 104.233 566.373 104.233C569.057 104.233 571.429 103.54 573.489 102.154C575.549 100.768 577.162 98.848 578.328 96.3931C579.493 93.9383 580.076 91.1072 580.076 87.9001C580.076 84.6533 579.453 81.7827 578.206 79.2882C576.986 76.7541 575.224 74.7744 572.92 73.349C570.643 71.9236 567.932 71.2109 564.788 71.2109H557.021V52.3242H564.788C567.444 52.3242 569.789 51.6511 571.822 50.3048C573.882 48.9586 575.481 47.0977 576.62 44.722C577.758 42.3067 578.328 39.4955 578.328 36.2883C578.328 33.2395 577.826 30.5669 576.823 28.2704C575.847 25.9343 574.465 24.1129 572.676 22.8063C570.914 21.4997 568.854 20.8464 566.495 20.8464C564.11 20.8464 561.928 21.4799 559.949 22.7469C557.97 23.9743 556.384 25.7363 555.192 28.0328C553.999 30.3293 553.362 33.0217 553.281 36.1101H536.406C536.488 29.1019 537.857 22.9251 540.513 17.5798C543.17 12.2345 546.748 8.05725 551.248 5.04805C555.774 1.99925 560.884 0.474854 566.577 0.474854C572.323 0.474854 577.352 1.99925 581.662 5.04805C585.972 8.09684 589.32 12.2147 591.705 17.4016C594.118 22.5489 595.31 28.3298 595.283 34.7441C595.31 41.5544 593.86 47.2363 590.933 51.7896C588.032 56.343 584.251 59.2335 579.588 60.4609V61.4112C585.714 62.5594 590.377 65.6676 593.576 70.7357C596.801 75.7643 598.401 82.0598 598.373 89.6224C598.401 96.5515 597.032 102.708 594.267 108.093C591.529 113.478 587.747 117.715 582.922 120.803C578.097 123.892 572.567 125.436 566.333 125.436Z" fill="white"/>
<path d="M474.76 123.773V2.1377H530.872V23.3407H492.366V52.324H527.985V73.527H492.366V102.57H531.035V123.773H474.76Z" fill="white"/>
<path d="M415.716 23.3407V2.1377H484.107V23.3407H458.613V123.773H441.21V23.3407H415.716Z" fill="white"/>
<path d="M355.299 2.1377H372.864V78.6347H373.556L409.54 2.1377H424.951V123.773H407.345V47.2163H406.735L370.547 123.773H355.299V2.1377Z" fill="white"/>
<path d="M271.136 2.1377H292.849L315.782 83.8612H316.758L339.69 2.1377H361.403V123.773H344.326V44.6031H343.635L322.084 123.179H310.455L288.905 44.3061H288.214V123.773H271.136V2.1377Z" fill="white"/>
<path d="M217.611 123.773V2.1377H250.465C256.781 2.1377 262.162 3.89966 266.608 7.4236C271.053 10.9079 274.442 15.7583 276.773 21.9747C279.131 28.1514 280.31 35.2785 280.31 43.3558C280.31 51.4332 279.118 58.5602 276.732 64.737C274.347 70.9138 270.891 75.7245 266.364 79.1693C261.864 82.614 256.415 84.3364 250.018 84.3364H229.078V63.7273H247.172C250.56 63.7273 253.352 62.876 255.548 61.1735C257.771 59.4313 259.424 57.0358 260.509 53.987C261.62 50.8986 262.176 47.3549 262.176 43.3558C262.176 39.3172 261.62 35.7932 260.509 32.784C259.424 29.7352 257.771 27.3793 255.548 25.7164C253.325 24.0138 250.506 23.1625 247.09 23.1625H235.217V123.773H217.611Z" fill="white"/>
<path d="M225.179 62.9554C225.179 76.2196 223.458 87.5041 220.016 96.8089C216.6 106.114 211.938 113.221 206.028 118.131C200.146 123.001 193.532 125.436 186.186 125.436C178.785 125.436 172.144 122.981 166.262 118.071C160.38 113.162 155.731 106.054 152.315 96.7495C148.9 87.4447 147.192 76.18 147.192 62.9554C147.192 49.6911 148.9 38.4066 152.315 29.1019C155.731 19.7971 160.38 12.7096 166.262 7.83948C172.144 2.92973 178.785 0.474854 186.186 0.474854C193.532 0.474854 200.146 2.92973 206.028 7.83948C211.938 12.7096 216.6 19.7971 220.016 29.1019C223.458 38.4066 225.179 49.6911 225.179 62.9554ZM207.329 62.9554C207.329 54.3633 206.448 47.1175 204.686 41.2178C202.952 35.3182 200.498 30.844 197.327 27.7952C194.155 24.7464 190.442 23.222 186.186 23.222C181.93 23.222 178.216 24.7464 175.045 27.7952C171.873 30.844 169.406 35.3182 167.644 41.2178C165.909 47.1175 165.042 54.3633 165.042 62.9554C165.042 71.5474 165.909 78.7933 167.644 84.6929C169.406 90.5925 171.873 95.0667 175.045 98.1155C178.216 101.164 181.93 102.689 186.186 102.689C190.442 102.689 194.155 101.164 197.327 98.1155C200.498 95.0667 202.952 90.5925 204.686 84.6929C206.448 78.7933 207.329 71.5474 207.329 62.9554Z" fill="white"/>
<path d="M103.355 15.2044H121.977C128.646 15.2044 134.555 17.2633 139.705 21.3812C144.883 25.499 148.936 31.2996 151.863 38.783C154.818 46.2269 156.295 54.9773 156.295 65.0344C156.295 74.7747 154.818 83.2677 151.863 90.5136C148.936 97.7594 144.883 103.402 139.705 107.44C134.555 111.439 128.646 113.439 121.977 113.439H103.355C96.6592 113.439 90.7227 111.459 85.5452 107.5C80.3677 103.501 76.3016 97.8782 73.3469 90.6324C70.4194 83.3865 68.9556 74.8341 68.9556 64.975C68.9556 54.9179 70.4329 46.1675 73.3876 38.7237C76.3694 31.2402 80.449 25.4594 85.6265 21.3812C90.804 17.2633 96.7134 15.2044 103.355 15.2044ZM103.355 36.7043C99.7765 36.7043 96.6185 37.7536 93.8807 39.8521C91.17 41.911 89.0556 45.039 87.5376 49.2361C86.0196 53.4331 85.2606 58.6794 85.2606 64.975C85.2606 70.9934 86.0331 76.0021 87.5783 80.0012C89.1505 84.0002 91.2919 86.9896 94.0027 88.9694C96.7134 90.9491 99.8307 91.939 103.355 91.939H122.099C125.65 91.939 128.754 90.9293 131.411 88.91C134.094 86.8907 136.168 83.8814 137.632 79.8824C139.123 75.8833 139.868 70.934 139.868 65.0344C139.868 58.7388 139.123 53.4925 137.632 49.2955C136.168 45.0984 134.094 41.9506 131.411 39.8521C128.754 37.7536 125.65 36.7043 122.099 36.7043H103.355ZM121.001 0V128.762H104.29V0H121.001Z" fill="white"/>
<path d="M77.9876 62.9554C77.9876 76.2196 76.2663 87.5041 72.8236 96.8089C69.4081 106.114 64.7457 113.221 58.8363 118.131C52.954 123.001 46.3398 125.436 38.9938 125.436C31.5935 125.436 24.9522 122.981 19.07 118.071C13.1877 113.162 8.53878 106.054 5.12327 96.7495C1.70776 87.4447 0 76.18 0 62.9554C0 49.6911 1.70776 38.4066 5.12327 29.1019C8.53878 19.7971 13.1877 12.7096 19.07 7.83948C24.9522 2.92973 31.5935 0.474854 38.9938 0.474854C46.3398 0.474854 52.954 2.92973 58.8363 7.83948C64.7457 12.7096 69.4081 19.7971 72.8236 29.1019C76.2663 38.4066 77.9876 49.6911 77.9876 62.9554ZM60.1374 62.9554C60.1374 54.3633 59.2565 47.1175 57.4945 41.2178C55.7596 35.3182 53.3064 30.844 50.1349 27.7952C46.9633 24.7464 43.2496 23.222 38.9938 23.222C34.7379 23.222 31.0243 24.7464 27.8527 27.7952C24.6812 30.844 22.2144 35.3182 20.4524 41.2178C18.7176 47.1175 17.8501 54.3633 17.8501 62.9554C17.8501 71.5474 18.7176 78.7933 20.4524 84.6929C22.2144 90.5925 24.6812 95.0667 27.8527 98.1155C31.0243 101.164 34.7379 102.689 38.9938 102.689C43.2496 102.689 46.9633 101.164 50.1349 98.1155C53.3064 95.0667 55.7596 90.5925 57.4945 84.6929C59.2565 78.7933 60.1374 71.5474 60.1374 62.9554Z" fill="white"/>
</svg>
